<svg width="70" height="69" viewBox="0 0 70 69" fill="none" xmlns="http://www.w3.org/2000/svg">
<g id="tg_icon">
<path id="Vector" d="M35 68.3099C53.6728 68.3099 68.81 53.1727 68.81 34.4999C68.81 15.8272 53.6728 0.689941 35 0.689941C16.3273 0.689941 1.19 15.8272 1.19 34.4999C1.19 53.1727 16.3273 68.3099 35 68.3099Z" fill="white"/>
<path id="Vector_2" d="M46.1387 26.191L42.1034 45.2213C41.7987 46.5643 41.0051 46.8986 39.8771 46.2662L33.7282 41.7353L30.7617 44.5891C30.4331 44.9176 30.159 45.1917 29.5257 45.1917L29.968 38.9301L41.3632 28.6332C41.8589 28.192 41.2554 27.9465 40.5935 28.3886L26.5058 37.2596L20.4408 35.3609C19.1219 34.9493 19.0979 34.042 20.716 33.4087L44.4376 24.2693C45.5361 23.8577 46.4969 24.5129 46.1387 26.191Z" fill="#191919"/>
</g>
</svg>
