<svg width="70" height="69" viewBox="0 0 70 69" fill="none" xmlns="http://www.w3.org/2000/svg">
<g id="WhatsApp_icon">
<path id="Vector" d="M35 68.3099C53.6728 68.3099 68.81 53.1727 68.81 34.4999C68.81 15.8272 53.6728 0.689941 35 0.689941C16.3273 0.689941 1.19 15.8272 1.19 34.4999C1.19 53.1727 16.3273 68.3099 35 68.3099Z" fill="white"/>
<path id="Vector_2" d="M35.4375 22C42.5829 22 48.375 27.7921 48.375 34.9375C48.375 42.0829 42.5829 47.875 35.4375 47.875C33.1512 47.8787 30.9051 47.2736 28.93 46.122L22.5052 47.875L24.2543 41.4476C23.1017 39.4719 22.4962 37.2248 22.5 34.9375C22.5 27.7921 28.2921 22 35.4375 22ZM31.0284 28.8569L30.7697 28.8672C30.6022 28.8774 30.4384 28.9214 30.2884 28.9966C30.148 29.0761 30.0199 29.1754 29.908 29.2916C29.7528 29.4378 29.6648 29.5646 29.5704 29.6875C29.0918 30.3096 28.8342 31.0735 28.8381 31.8584C28.8407 32.4923 29.0063 33.1094 29.265 33.6864C29.7942 34.8534 30.6649 36.0889 31.8137 37.2339C32.0906 37.5095 32.3623 37.7863 32.6547 38.0438C34.0822 39.3006 35.7833 40.207 37.6227 40.6908L38.3575 40.8034C38.5969 40.8163 38.8362 40.7982 39.0768 40.7865C39.4536 40.7671 39.8215 40.6651 40.1545 40.4877C40.324 40.4004 40.4893 40.3054 40.65 40.2031C40.65 40.2031 40.7057 40.1668 40.8118 40.0866C40.9864 39.9572 41.0938 39.8654 41.2387 39.714C41.3461 39.6028 41.4392 39.4721 41.5104 39.3233C41.6113 39.1124 41.7122 38.7101 41.7536 38.375C41.7847 38.1188 41.7756 37.9791 41.7717 37.8924C41.7665 37.754 41.6514 37.6104 41.5259 37.5496L40.7729 37.2119C40.7729 37.2119 39.6474 36.7216 38.9591 36.4085C38.8871 36.377 38.8099 36.3591 38.7314 36.3554C38.6429 36.3464 38.5534 36.3563 38.4691 36.3847C38.3847 36.413 38.3074 36.4591 38.2424 36.5198C38.2359 36.5172 38.1492 36.5909 37.2138 37.7242C37.1601 37.7964 37.0862 37.8509 37.0014 37.8809C36.9166 37.9108 36.8248 37.9148 36.7377 37.8924C36.6535 37.8698 36.5709 37.8413 36.4906 37.807C36.3302 37.7398 36.2746 37.7139 36.1646 37.6673C35.4221 37.3433 34.7346 36.9055 34.1269 36.3697C33.9639 36.2274 33.8126 36.0721 33.6573 35.922C33.1483 35.4346 32.7048 34.8832 32.3377 34.2816L32.2614 34.1587C32.2065 34.0761 32.1622 33.987 32.1294 33.8934C32.0802 33.7033 32.2083 33.5506 32.2083 33.5506C32.2083 33.5506 32.5227 33.2065 32.6689 33.0202C32.8112 32.839 32.9315 32.6631 33.0091 32.5376C33.1618 32.2918 33.2097 32.0395 33.1295 31.8441C32.7672 30.9592 32.392 30.0782 32.0065 29.2036C31.9302 29.0302 31.7038 28.906 31.498 28.8815C31.4282 28.8737 31.3583 28.8659 31.2885 28.8608C31.1147 28.8521 30.9406 28.8539 30.7671 28.8659L31.0271 28.8556L31.0284 28.8569Z" fill="#191919"/>
</g>
</svg>
