<?xml version="1.0" encoding="utf-8"?><svg viewBox="0 0 502.66 502.66" xmlns="http://www.w3.org/2000/svg" xmlns:xlink="http://www.w3.org/1999/xlink"><style>:root>svg{display:none}:root>svg:target{display:block}</style><svg viewBox="0 0 502.664 502.664" id="icon" xmlns="http://www.w3.org/2000/svg"><path d="M153.821 358.226L0 274.337v-46.463l153.821-83.414v54.574L46.636 250.523l107.185 53.431v54.272zm26.273 29.358L282.103 115.08h32.227L212.084 387.584h-31.99zm168.749-29.358v-54.272l107.164-52.999-107.164-52.59v-53.927l153.821 83.522v46.183l-153.821 84.083z"/></svg><svg viewBox="0 0 70 69" id="tg-icon" xmlns="http://www.w3.org/2000/svg"><path d="M35 68.31c18.673 0 33.81-15.137 33.81-33.81C68.81 15.827 53.673.69 35 .69 16.327.69 1.19 15.827 1.19 34.5c0 18.673 15.137 33.81 33.81 33.81z"/><path d="M46.139 26.191l-4.036 19.03c-.304 1.343-1.098 1.678-2.226 1.045l-6.149-4.53-2.966 2.853c-.329.329-.603.603-1.236.603l.442-6.262 11.395-10.297c.496-.441-.108-.686-.77-.244l-14.087 8.87-6.065-1.898c-1.32-.412-1.343-1.319.275-1.952l23.722-9.14c1.098-.411 2.059.244 1.7 1.922z"/></svg><svg viewBox="0 0 70 69" id="whatsapp-icon" xmlns="http://www.w3.org/2000/svg"><path d="M35 68.31c18.673 0 33.81-15.137 33.81-33.81C68.81 15.827 53.673.69 35 .69 16.327.69 1.19 15.827 1.19 34.5c0 18.673 15.137 33.81 33.81 33.81z"/><path d="M35.438 22c7.145 0 12.937 5.792 12.937 12.938 0 7.145-5.792 12.937-12.938 12.937a12.878 12.878 0 01-6.507-1.753l-6.425 1.753 1.75-6.427a12.877 12.877 0 01-1.755-6.51C22.5 27.791 28.292 22 35.438 22zm-4.41 6.857l-.258.01c-.168.01-.332.054-.482.13-.14.08-.268.178-.38.295-.155.146-.243.273-.338.395a3.531 3.531 0 00-.732 2.171c.003.634.168 1.251.427 1.828.53 1.167 1.4 2.403 2.549 3.548.277.276.548.552.84.81a12.223 12.223 0 004.969 2.647l.735.112c.239.013.478-.005.719-.017.377-.019.745-.12 1.078-.298.169-.088.334-.183.495-.285 0 0 .056-.036.162-.116a2.97 2.97 0 00.427-.373c.107-.111.2-.242.271-.39.101-.212.202-.614.244-.949.03-.256.022-.396.018-.483-.005-.138-.12-.282-.246-.342l-.753-.338s-1.126-.49-1.814-.804a.644.644 0 00-.228-.053.624.624 0 00-.489.165c-.006-.003-.093.07-1.028 1.204a.453.453 0 01-.476.168 1.85 1.85 0 01-.247-.085c-.16-.067-.216-.093-.326-.14a7.796 7.796 0 01-2.038-1.297c-.163-.143-.314-.298-.47-.448a8.145 8.145 0 01-1.32-1.64l-.076-.123a1.19 1.19 0 01-.132-.266.415.415 0 01.08-.342s.314-.345.46-.53c.142-.182.263-.358.34-.483.153-.246.2-.498.12-.694-.362-.885-.737-1.766-1.122-2.64-.077-.174-.303-.298-.509-.323a5.499 5.499 0 00-.21-.02 4.382 4.382 0 00-.52.005l.26-.01z"/></svg></svg>